<svg xmlns="http://www.w3.org/2000/svg" width="1024" height="1024" viewBox="0 0 1024 1024">
<g>
<path d="M 0.00 0.00 L 1024.00 0.00 L 1024.00 1024.00 L 0.00 1024.00 ZM 320.27 572.63 C328.12,574.63 342.95,573.75 351.02,570.80 C388.73,557.01 400.29,508.84 372.92,479.57 C361.57,467.44 349.04,461.76 333.50,461.71 C318.10,461.65 305.70,466.67 294.73,477.40 C288.06,483.92 282.35,493.55 279.60,502.93 C277.02,511.70 277.45,525.85 280.59,535.26 C286.72,553.68 301.86,567.93 320.27,572.63 ZM 582.75 568.92 C584.81,569.40 602.14,569.84 621.25,569.90 L 656.00 570.00 L 656.00 509.97 L 627.75 510.23 L 599.50 510.50 L 598.92 528.00 L 638.00 528.00 L 638.00 552.12 L 586.50 551.50 L 580.80 548.70 C556.50,536.77 556.15,501.64 580.21,488.79 C584.42,486.54 585.18,486.49 620.25,486.20 L 656.00 485.91 L 656.00 467.00 L 623.75 467.02 C588.42,467.04 582.66,467.67 572.36,472.68 C569.18,474.23 563.80,478.09 560.41,481.25 C543.57,496.96 539.82,521.89 550.98,543.95 C556.24,554.35 571.36,566.23 582.75,568.92 ZM 347.47 551.64 C341.41,554.42 330.80,555.51 324.73,553.97 C307.02,549.51 294.23,531.33 296.42,513.76 C297.95,501.52 306.83,489.26 317.80,484.23 C325.94,480.50 337.33,479.99 345.28,482.99 C353.34,486.02 361.84,494.07 365.60,502.22 C368.16,507.76 368.50,509.62 368.50,518.02 C368.50,526.75 368.23,528.10 365.25,534.15 C361.42,541.92 355.08,548.16 347.47,551.64 ZM 232.77 558.75 L 233.29 570.00 L 250.00 570.00 L 250.00 518.92 C250.00,487.71 249.64,467.96 249.07,468.17 C248.55,468.35 235.93,479.90 221.02,493.84 C197.92,515.43 193.69,518.99 192.39,517.91 C191.55,517.21 181.37,505.69 169.78,492.32 L 148.71 468.00 L 137.85 468.00 C131.88,468.00 127.00,468.27 127.00,468.60 C127.00,469.34 136.32,480.24 167.92,516.49 C181.35,531.90 192.46,544.67 192.62,544.87 C192.78,545.08 201.51,536.98 212.01,526.87 C222.52,516.77 231.42,508.39 231.80,508.25 C232.19,508.12 232.45,516.89 232.38,527.75 C232.31,538.61 232.49,552.56 232.77,558.75 ZM 490.32 561.25 L 497.24 570.00 L 519.14 570.00 L 517.14 567.25 C516.04,565.74 509.32,557.30 502.20,548.50 L 489.26 532.50 L 495.11 530.38 C502.53,527.70 506.92,524.34 510.92,518.31 C522.35,501.05 516.07,478.17 497.59,469.81 C492.60,467.54 491.76,467.49 453.71,467.21 L 414.92 466.91 L 415.21 476.21 L 415.50 485.50 L 453.65 486.00 C490.00,486.48 491.90,486.59 494.00,488.50 C501.48,495.27 500.37,507.73 491.90,512.05 C488.55,513.76 485.96,514.00 471.04,514.00 C461.67,514.00 454.00,514.26 454.00,514.58 C454.00,515.09 464.63,528.74 490.32,561.25 ZM 858.92 531.44 C885.47,552.65 907.37,570.00 907.59,570.00 C907.82,570.00 908.00,546.83 908.00,518.50 L 908.00 467.00 L 891.00 467.00 L 891.00 500.00 C891.00,518.15 890.73,533.00 890.40,533.00 C890.07,533.00 881.44,526.36 871.22,518.25 C861.00,510.14 842.26,495.29 829.57,485.25 L 806.50 466.99 L 806.22 478.08 C805.94,488.70 806.03,489.24 808.30,491.02 C809.60,492.04 832.38,510.23 858.92,531.44 ZM 685.68 485.34 C686.05,485.72 706.64,485.90 731.43,485.76 L 776.50 485.50 L 777.08 467.00 L 685.00 467.00 L 685.00 475.83 C685.00,480.69 685.30,484.97 685.68,485.34 ZM 685.00 510.00 L 685.00 528.00 L 777.00 528.00 L 777.00 510.00 ZM 685.00 552.00 L 685.00 570.00 L 777.00 570.00 L 777.00 552.00 ZM 127.00 504.54 L 127.00 570.00 L 144.00 570.00 L 144.00 521.46 L 135.50 513.00 ZM 806.00 542.88 L 806.00 570.00 L 824.12 570.00 L 823.70 549.44 C823.47,538.13 822.88,528.53 822.39,528.10 C821.90,527.67 818.58,525.15 815.00,522.49 C811.42,519.83 807.94,517.23 807.25,516.71 C806.26,515.95 806.00,521.34 806.00,542.88 Z" fill="rgb(2,2,38)"/>
<path d="M 582.75 568.92 C571.36,566.23 556.24,554.35 550.98,543.95 C539.82,521.89 543.57,496.96 560.41,481.25 C563.80,478.09 569.18,474.23 572.36,472.68 C582.66,467.67 588.42,467.04 623.75,467.02 L 656.00 467.00 L 656.00 485.91 L 620.25 486.20 C585.18,486.49 584.42,486.54 580.21,488.79 C556.15,501.64 556.50,536.77 580.80,548.70 L 586.50 551.50 L 638.00 552.12 L 638.00 528.00 L 598.92 528.00 L 599.50 510.50 L 627.75 510.23 L 656.00 509.97 L 656.00 570.00 L 621.25 569.90 C602.14,569.84 584.81,569.40 582.75,568.92 ZM 232.77 558.75 C232.49,552.56 232.31,538.61 232.38,527.75 C232.45,516.89 232.19,508.12 231.80,508.25 C231.42,508.39 222.52,516.77 212.01,526.87 C201.51,536.98 192.78,545.08 192.62,544.87 C192.46,544.67 181.35,531.90 167.92,516.49 C136.32,480.24 127.00,469.34 127.00,468.60 C127.00,468.27 131.88,468.00 137.85,468.00 L 148.71 468.00 L 169.78 492.32 C181.37,505.69 191.55,517.21 192.39,517.91 C193.69,518.99 197.92,515.43 221.02,493.84 C235.93,479.90 248.55,468.35 249.07,468.17 C249.64,467.96 250.00,487.71 250.00,518.92 L 250.00 570.00 L 233.29 570.00 ZM 490.32 561.25 C464.63,528.74 454.00,515.09 454.00,514.58 C454.00,514.26 461.67,514.00 471.04,514.00 C485.96,514.00 488.55,513.76 491.90,512.05 C500.37,507.73 501.48,495.27 494.00,488.50 C491.90,486.59 490.00,486.48 453.65,486.00 L 415.50 485.50 L 415.21 476.21 L 414.92 466.91 L 453.71 467.21 C491.76,467.49 492.60,467.54 497.59,469.81 C516.07,478.17 522.35,501.05 510.92,518.31 C506.92,524.34 502.53,527.70 495.11,530.38 L 489.26 532.50 L 502.20 548.50 C509.32,557.30 516.04,565.74 517.14,567.25 L 519.14 570.00 L 497.24 570.00 ZM 858.92 531.44 C832.38,510.23 809.60,492.04 808.30,491.02 C806.03,489.24 805.94,488.70 806.22,478.08 L 806.50 466.99 L 829.57 485.25 C842.26,495.29 861.00,510.14 871.22,518.25 C881.44,526.36 890.07,533.00 890.40,533.00 C890.73,533.00 891.00,518.15 891.00,500.00 L 891.00 467.00 L 908.00 467.00 L 908.00 518.50 C908.00,546.83 907.82,570.00 907.59,570.00 C907.37,570.00 885.47,552.65 858.92,531.44 ZM 685.68 485.34 C685.30,484.97 685.00,480.69 685.00,475.83 L 685.00 467.00 L 777.08 467.00 L 776.50 485.50 L 731.43 485.76 C706.64,485.90 686.05,485.72 685.68,485.34 ZM 685.00 510.00 L 777.00 510.00 L 777.00 528.00 L 685.00 528.00 ZM 685.00 552.00 L 777.00 552.00 L 777.00 570.00 L 685.00 570.00 ZM 127.00 504.54 L 144.00 521.46 L 144.00 570.00 L 127.00 570.00 ZM 806.00 542.88 C806.00,521.34 806.26,515.95 807.25,516.71 C807.94,517.23 811.42,519.83 815.00,522.49 C818.58,525.15 821.90,527.67 822.39,528.10 C822.88,528.53 823.47,538.13 823.70,549.44 L 824.12 570.00 L 806.00 570.00 Z" fill="rgb(247,247,247)"/>
<path d="M 320.27 572.63 C301.86,567.93 286.72,553.68 280.59,535.26 C277.45,525.85 277.02,511.70 279.60,502.93 C282.35,493.55 288.06,483.92 294.73,477.40 C305.70,466.67 318.10,461.65 333.50,461.71 C349.04,461.76 361.57,467.44 372.92,479.57 C400.29,508.84 388.73,557.01 351.02,570.80 C342.95,573.75 328.12,574.63 320.27,572.63 ZM 347.47 551.64 C355.08,548.16 361.42,541.92 365.25,534.15 C368.23,528.10 368.50,526.75 368.50,518.02 C368.50,509.62 368.16,507.76 365.60,502.22 C361.84,494.07 353.34,486.02 345.28,482.99 C337.33,479.99 325.94,480.50 317.80,484.23 C306.83,489.26 297.95,501.52 296.42,513.76 C294.23,531.33 307.02,549.51 324.73,553.97 C330.80,555.51 341.41,554.42 347.47,551.64 Z" fill="rgb(252,201,42)"/>
</g>
</svg>